<svg width="44" height="29" viewBox="0 0 44 29" fill="none" xmlns="http://www.w3.org/2000/svg">
<g clip-path="url(#clip0_60_32)">
<path d="M0.753995 26.556C0.267995 26.556 0.105995 26.259 0.267995 25.665C0.915995 23.073 1.96899 20.724 3.42699 18.618C4.93899 16.458 6.72099 14.406 8.77299 12.462C10.879 10.518 13.12 8.547 15.496 6.549C14.578 6.657 13.822 6.792 13.228 6.954C12.634 7.116 11.716 7.197 10.474 7.197C9.394 7.197 8.233 7.116 6.99099 6.954C5.80299 6.738 4.77699 6.414 3.91299 5.982C3.04899 5.55 2.61699 4.929 2.61699 4.119C2.61699 3.471 2.77899 2.931 3.10299 2.499C3.48099 2.067 3.88599 1.662 4.31799 1.284C4.58799 1.014 4.83099 0.878999 5.04699 0.878999C5.26299 0.878999 5.37099 1.014 5.37099 1.284C5.37099 1.608 5.20899 1.932 4.88499 2.256C4.45299 2.688 4.23699 3.066 4.23699 3.39C4.23699 3.93 4.72299 4.335 5.69499 4.605C6.72099 4.821 7.936 4.929 9.34 4.929C10.96 4.929 12.634 4.794 14.362 4.524C16.144 4.254 17.548 3.93 18.574 3.552C19.222 3.282 19.681 3.066 19.951 2.904C20.275 2.688 20.545 2.58 20.761 2.58C21.193 2.58 21.544 2.823 21.814 3.309C22.138 3.795 22.3 4.308 22.3 4.848C22.3 5.496 22.084 5.928 21.652 6.144C19.006 7.71 16.387 9.303 13.795 10.923C11.203 12.489 8.90799 14.325 6.90999 16.431C4.91199 18.537 3.42699 21.183 2.45499 24.369C3.31899 23.829 4.47999 23.235 5.93799 22.587C7.45 21.885 9.043 21.291 10.717 20.805C12.445 20.265 14.011 19.995 15.415 19.995C17.143 19.995 18.223 20.319 18.655 20.967C19.141 21.561 19.384 22.101 19.384 22.587C19.384 23.019 19.357 23.451 19.303 23.883C19.303 24.261 19.249 24.585 19.141 24.855C18.925 25.341 18.655 25.584 18.331 25.584C18.115 25.584 18.088 25.422 18.25 25.098C18.358 24.936 18.439 24.801 18.493 24.693C18.547 24.531 18.574 24.342 18.574 24.126C18.574 23.424 17.953 22.965 16.711 22.749C15.469 22.533 14.227 22.425 12.985 22.425C11.311 22.425 9.44799 22.803 7.39599 23.559C5.39799 24.261 3.75099 24.99 2.45499 25.746C1.42899 26.286 0.861995 26.556 0.753995 26.556ZM24.6148 27.852C23.6428 27.852 22.9408 27.447 22.5088 26.637C22.0768 25.773 21.8608 24.774 21.8608 23.64C21.8608 22.182 22.1038 20.481 22.5898 18.537C23.1298 16.593 23.8318 14.595 24.6958 12.543C25.5598 10.437 26.5318 8.52 27.6118 6.792C28.7458 5.01 29.9338 3.579 31.1758 2.499C32.4178 1.365 33.6328 0.798 34.8208 0.798C35.9008 0.798 36.8188 1.284 37.5748 2.256C38.3848 3.174 38.7898 4.227 38.7898 5.415C38.7898 6.117 38.6818 6.711 38.4658 7.197C38.2498 7.629 38.0068 7.845 37.7368 7.845C37.5208 7.845 37.3318 7.683 37.1698 7.359C36.6298 6.117 36.0358 5.226 35.3878 4.686C34.7938 4.146 34.1728 3.876 33.5248 3.876C32.4448 3.876 31.3648 4.497 30.2848 5.739C29.2588 6.927 28.4218 8.304 27.7738 9.87C27.2338 11.058 26.7208 12.489 26.2348 14.163C25.8028 15.783 25.4248 17.403 25.1008 19.023C24.8308 20.589 24.6958 21.885 24.6958 22.911C24.6958 24.747 25.1278 25.665 25.9918 25.665C27.0718 25.665 28.4488 24.477 30.1228 22.101C31.3648 20.373 32.4718 18.375 33.4438 16.107C34.4698 13.839 35.3338 11.868 36.0358 10.194C36.3058 9.654 36.6028 9.303 36.9268 9.141C37.2508 8.979 37.5478 8.898 37.8178 8.898C38.4658 8.898 38.8708 9.168 39.0328 9.708C39.2488 10.248 39.3568 10.707 39.3568 11.085C39.3568 12.489 39.2218 13.758 38.9518 14.892C38.6818 15.972 38.5468 17.295 38.5468 18.861C38.5468 19.995 38.6278 21.048 38.7898 22.02C39.0058 22.938 39.3568 23.397 39.8428 23.397C40.4368 23.397 41.1928 22.641 42.1108 21.129C42.3268 20.697 42.6508 20.481 43.0828 20.481C43.5688 20.481 43.8118 20.724 43.8118 21.21C43.8118 21.912 43.3258 22.668 42.3538 23.478C41.3818 24.234 40.4098 24.612 39.4378 24.612C38.1418 24.612 37.2238 24.072 36.6838 22.992C35.7658 21.21 35.3068 19.617 35.3068 18.213C35.3068 16.755 35.2798 15.756 35.2258 15.216C34.9558 15.864 34.4428 16.89 33.6868 18.294C32.9308 19.644 32.0398 21.075 31.0138 22.587C29.9878 24.045 28.9078 25.287 27.7738 26.313C26.6398 27.339 25.5868 27.852 24.6148 27.852Z" fill="#D8FA0F"/>
</g>
<defs>
<clipPath id="clip0_60_32">
<rect width="44" height="28" fill="white" transform="translate(0 0.5)"/>
</clipPath>
</defs>
</svg>
