<svg id="Layer_1" data-name="Layer 1" xmlns="http://www.w3.org/2000/svg" xmlns:xlink="http://www.w3.org/1999/xlink" viewBox="0 0 190.126 45.59"><defs><style>.cls-1{fill:#222;}.cls-2{fill:#fff;}.cls-3{fill:url(#linear-gradient);}.cls-4{fill:url(#linear-gradient-4);}.cls-5{fill:#f40034;}</style><linearGradient id="linear-gradient" x1="59.79" y1="49.62" x2="98.637" y2="49.62" gradientUnits="userSpaceOnUse"><stop offset="0" stop-color="#ff0036"/><stop offset="1" stop-color="#ff8400"/></linearGradient><linearGradient id="linear-gradient-4" x1="14.953" y1="65.723" x2="56.689" y2="23.987" gradientUnits="userSpaceOnUse"><stop offset="0.251" stop-color="#ff8400"/><stop offset="1" stop-color="#ff0036"/></linearGradient></defs><path class="cls-1" d="M108.445,53.4a9.69,9.69,0,0,1-3.184-.505,6.756,6.756,0,0,1-2.335-1.286,2.239,2.239,0,0,1-.876-1.659,2.326,2.326,0,0,1,.239-.968,2.707,2.707,0,0,1,.65-.889,1.337,1.337,0,0,1,.915-.371,1.5,1.5,0,0,1,.889.292c.275.194.575.424.9.689a5.123,5.123,0,0,0,1.141.691,3.846,3.846,0,0,0,1.578.292,4.334,4.334,0,0,0,1.208-.173,2.245,2.245,0,0,0,.982-.558,1.381,1.381,0,0,0,.384-1.021,1.684,1.684,0,0,0-.451-1.181,4.433,4.433,0,0,0-1.207-.889q-.758-.4-1.645-.809t-1.791-.9a8.637,8.637,0,0,1-1.658-1.167,5.04,5.04,0,0,1-1.208-1.632,5.3,5.3,0,0,1-.452-2.282,5.133,5.133,0,0,1,.584-2.533,4.814,4.814,0,0,1,1.566-1.7,7.07,7.07,0,0,1,2.189-.955,10,10,0,0,1,2.454-.3q.532,0,1.408.079a10.384,10.384,0,0,1,1.764.319,4.294,4.294,0,0,1,1.5.7,1.477,1.477,0,0,1,.611,1.234,2.838,2.838,0,0,1-.173.862,2.586,2.586,0,0,1-.531.916,1.208,1.208,0,0,1-.942.4,1.664,1.664,0,0,1-.889-.253,7.331,7.331,0,0,0-1.035-.5,4.717,4.717,0,0,0-1.712-.251,4.379,4.379,0,0,0-1.525.225,1.839,1.839,0,0,0-.862.584,1.285,1.285,0,0,0-.266.782,1.27,1.27,0,0,0,.451.969,4.91,4.91,0,0,0,1.208.77q.756.357,1.645.742a18.111,18.111,0,0,1,1.791.9,8.672,8.672,0,0,1,1.659,1.233,5.3,5.3,0,0,1,1.207,1.752,6.137,6.137,0,0,1,.451,2.467,5.756,5.756,0,0,1-.862,3.224,5.451,5.451,0,0,1-2.349,1.991A8.185,8.185,0,0,1,108.445,53.4Z" transform="translate(-4.32 -14.242)"/><path class="cls-1" d="M119.165,53.4a3.559,3.559,0,0,1-2.388-.862,3.317,3.317,0,0,1-1.008-2.667,3.5,3.5,0,0,1,.795-2.441,4.254,4.254,0,0,1,2.19-1.221,13.489,13.489,0,0,1,3.224-.345h.956V45.6a2.364,2.364,0,0,0-.187-.9,1.749,1.749,0,0,0-.61-.756,2.023,2.023,0,0,0-1.194-.3,4.619,4.619,0,0,0-1.619.212,3.509,3.509,0,0,0-.822.437,1.054,1.054,0,0,1-.663.226,1.118,1.118,0,0,1-1.023-.663,2.879,2.879,0,0,1-.357-1.38,1.347,1.347,0,0,1,.729-1.115,5.9,5.9,0,0,1,1.778-.743,8.308,8.308,0,0,1,2.03-.265,7.158,7.158,0,0,1,3.5.743,4.675,4.675,0,0,1,1.937,1.924,5.437,5.437,0,0,1,.61,2.534v6.315a1.073,1.073,0,0,1-.57.9,2.611,2.611,0,0,1-1.447.371,2.217,2.217,0,0,1-1.3-.371,1.083,1.083,0,0,1-.531-.9v-.584a8.622,8.622,0,0,1-1.672,1.473A4.092,4.092,0,0,1,119.165,53.4Zm1.778-3a1.483,1.483,0,0,0,.875-.331,2.969,2.969,0,0,0,.784-.889,2.354,2.354,0,0,0,.332-1.221v-.106h-.107a10.6,10.6,0,0,0-1.42.093,2.354,2.354,0,0,0-1.088.4,1.328,1.328,0,0,0-.119,1.792A1.066,1.066,0,0,0,120.943,50.4Z" transform="translate(-4.32 -14.242)"/><path class="cls-1" d="M130.974,53.136a2.513,2.513,0,0,1-1.473-.4,1.094,1.094,0,0,1-.57-.875V41.752a1.024,1.024,0,0,1,.57-.9,2.812,2.812,0,0,1,1.473-.346,2.283,2.283,0,0,1,1.273.346,1.036,1.036,0,0,1,.531.9v.61A4.6,4.6,0,0,1,134.1,40.97a3.657,3.657,0,0,1,2.176-.624,2.763,2.763,0,0,1,1.911.743A4.468,4.468,0,0,1,139.412,43a4.819,4.819,0,0,1,1.765-2,4.23,4.23,0,0,1,2.216-.65,4.544,4.544,0,0,1,2.347.65,4.889,4.889,0,0,1,1.791,1.9,6.161,6.161,0,0,1,.691,3.024v5.944a1.092,1.092,0,0,1-.611.875,2.606,2.606,0,0,1-1.459.4,2.561,2.561,0,0,1-1.433-.4,1.092,1.092,0,0,1-.611-.875V45.918a2.257,2.257,0,0,0-.252-1.114,1.683,1.683,0,0,0-.663-.677,1.781,1.781,0,0,0-.862-.226,1.591,1.591,0,0,0-.81.226,1.77,1.77,0,0,0-.636.664,2.229,2.229,0,0,0-.252,1.127v5.971a.987.987,0,0,1-.651.955,3.42,3.42,0,0,1-1.42.292,3.382,3.382,0,0,1-1.379-.292.986.986,0,0,1-.663-.955V45.945a2.171,2.171,0,0,0-.266-1.115,1.764,1.764,0,0,0-1.539-.9,1.645,1.645,0,0,0-.809.213,1.575,1.575,0,0,0-.624.65,2.343,2.343,0,0,0-.239,1.127v5.944a1.091,1.091,0,0,1-.61.875A2.606,2.606,0,0,1,130.974,53.136Z" transform="translate(-4.32 -14.242)"/><path class="cls-1" d="M157.694,53.4a4.179,4.179,0,0,1-2.295-.65,3.737,3.737,0,0,1-1.42-1.473v.584a1.1,1.1,0,0,1-.531.875,2.1,2.1,0,0,1-1.3.4,2.463,2.463,0,0,1-1.446-.4,1.094,1.094,0,0,1-.57-.875V34.535a1.027,1.027,0,0,1,.57-.9,2.754,2.754,0,0,1,1.446-.345,2.981,2.981,0,0,1,1.487.345,1.025,1.025,0,0,1,.61.9v7.827a4.323,4.323,0,0,1,1.286-1.392,3.459,3.459,0,0,1,2.083-.624,3.976,3.976,0,0,1,2.363.757,5.43,5.43,0,0,1,1.7,2.016,6.113,6.113,0,0,1,.637,2.8v1.857a6.1,6.1,0,0,1-.637,2.747,5.793,5.793,0,0,1-1.686,2.083A3.709,3.709,0,0,1,157.694,53.4Zm-1.406-3.583a1.706,1.706,0,0,0,.969-.291,2.155,2.155,0,0,0,.941-1.752V45.918a1.932,1.932,0,0,0-.252-.955,2.13,2.13,0,0,0-.689-.743,1.751,1.751,0,0,0-1-.292,2.046,2.046,0,0,0-.943.239,2.092,2.092,0,0,0-.769.677,1.835,1.835,0,0,0-.305,1.074v2.2a1.307,1.307,0,0,0,.278.624,2.933,2.933,0,0,0,.744.743A1.706,1.706,0,0,0,156.288,49.818Z" transform="translate(-4.32 -14.242)"/><path class="cls-1" d="M165.921,53.136a2.513,2.513,0,0,1-1.473-.4,1.094,1.094,0,0,1-.57-.875V34.535a1.027,1.027,0,0,1,.57-.9,2.812,2.812,0,0,1,1.473-.345,2.923,2.923,0,0,1,1.46.345,1.025,1.025,0,0,1,.61.9v7.827a3.816,3.816,0,0,1,1.221-1.392,3.4,3.4,0,0,1,2.069-.624,3.68,3.68,0,0,1,2.242.757,5.471,5.471,0,0,1,1.646,2.016,6.235,6.235,0,0,1,.623,2.8v5.944a1.021,1.021,0,0,1-.649.955,3.2,3.2,0,0,1-1.42.319,3.152,3.152,0,0,1-1.38-.319,1.018,1.018,0,0,1-.663-.955V45.918a1.857,1.857,0,0,0-.266-.955,2.316,2.316,0,0,0-.69-.743,1.647,1.647,0,0,0-1.791-.053,1.9,1.9,0,0,0-.677.677,2.036,2.036,0,0,0-.265,1.074v5.944a1.093,1.093,0,0,1-.61.875A2.61,2.61,0,0,1,165.921,53.136Z" transform="translate(-4.32 -14.242)"/><path class="cls-1" d="M180.329,53.4a3.559,3.559,0,0,1-2.388-.862,3.321,3.321,0,0,1-1.008-2.667,3.5,3.5,0,0,1,.8-2.441,4.246,4.246,0,0,1,2.189-1.221,13.489,13.489,0,0,1,3.224-.345h.956V45.6a2.364,2.364,0,0,0-.187-.9,1.749,1.749,0,0,0-.61-.756,2.023,2.023,0,0,0-1.194-.3,4.619,4.619,0,0,0-1.619.212,3.509,3.509,0,0,0-.822.437,1.054,1.054,0,0,1-.663.226,1.119,1.119,0,0,1-1.023-.663,2.879,2.879,0,0,1-.357-1.38,1.346,1.346,0,0,1,.73-1.115,5.884,5.884,0,0,1,1.777-.743,8.308,8.308,0,0,1,2.03-.265,7.158,7.158,0,0,1,3.5.743,4.675,4.675,0,0,1,1.937,1.924,5.437,5.437,0,0,1,.61,2.534v6.315a1.071,1.071,0,0,1-.57.9,2.611,2.611,0,0,1-1.447.371,2.212,2.212,0,0,1-1.3-.371,1.082,1.082,0,0,1-.532-.9v-.584a8.622,8.622,0,0,1-1.672,1.473A4.092,4.092,0,0,1,180.329,53.4Zm1.778-3a1.483,1.483,0,0,0,.875-.331,2.969,2.969,0,0,0,.784-.889,2.354,2.354,0,0,0,.332-1.221v-.106h-.107a10.6,10.6,0,0,0-1.42.093,2.354,2.354,0,0,0-1.088.4,1.328,1.328,0,0,0-.119,1.792A1.066,1.066,0,0,0,182.107,50.4Z" transform="translate(-4.32 -14.242)"/><path class="cls-1" d="M192.377,53.136a2.513,2.513,0,0,1-1.473-.4,1.1,1.1,0,0,1-.571-.875V34.535a1.028,1.028,0,0,1,.571-.9,2.812,2.812,0,0,1,1.473-.345,2.921,2.921,0,0,1,1.459.345,1.023,1.023,0,0,1,.61.9V51.862a1.091,1.091,0,0,1-.61.875A2.609,2.609,0,0,1,192.377,53.136Z" transform="translate(-4.32 -14.242)"/><path class="cls-2" d="M61.806,58.894a2.463,2.463,0,0,1-1.446-.4,1.1,1.1,0,0,1-.57-.876V41.752a1.024,1.024,0,0,1,.57-.9,2.646,2.646,0,0,1,1.393-.346,2.439,2.439,0,0,1,1.353.346,1.036,1.036,0,0,1,.531.9v.61A4.362,4.362,0,0,1,65.03,40.97a3.873,3.873,0,0,1,2.189-.624,4.11,4.11,0,0,1,2.428.757,5.262,5.262,0,0,1,1.7,2.016,6.235,6.235,0,0,1,.623,2.8v1.857a6.116,6.116,0,0,1-.636,2.747,5.793,5.793,0,0,1-1.686,2.083,3.747,3.747,0,0,1-4.418.146A3.633,3.633,0,0,1,63.9,51.278V57.62a1.1,1.1,0,0,1-.61.876A2.656,2.656,0,0,1,61.806,58.894Zm4.087-9.076a1.705,1.705,0,0,0,.968-.291,2.313,2.313,0,0,0,.717-.769,1.935,1.935,0,0,0,.278-.983V45.918a1.856,1.856,0,0,0-.265-.955,2.178,2.178,0,0,0-.73-.743,1.9,1.9,0,0,0-1.937-.053,2.051,2.051,0,0,0-.73.677,1.9,1.9,0,0,0-.292,1.074v2.2a1.369,1.369,0,0,0,.253.624,2.6,2.6,0,0,0,.7.743A1.692,1.692,0,0,0,65.893,49.818Z" transform="translate(-4.32 -14.242)"/><path class="cls-2" d="M75.949,53.136a2.512,2.512,0,0,1-1.472-.4,1.1,1.1,0,0,1-.571-.875V41.752a1.025,1.025,0,0,1,.571-.9,2.811,2.811,0,0,1,1.472-.346,2.288,2.288,0,0,1,1.274.346,1.035,1.035,0,0,1,.53.9v.61a3.64,3.64,0,0,1,1.3-1.392,3.951,3.951,0,0,1,2.256-.624,3.682,3.682,0,0,1,2.242.757A5.479,5.479,0,0,1,85.2,43.119a6.235,6.235,0,0,1,.623,2.8v5.944a1.019,1.019,0,0,1-.65.955,3.229,3.229,0,0,1-2.8,0,1.018,1.018,0,0,1-.663-.955V45.918a1.933,1.933,0,0,0-.253-.955,2.14,2.14,0,0,0-.689-.743,1.709,1.709,0,0,0-.969-.292,1.65,1.65,0,0,0-.836.239,1.909,1.909,0,0,0-.677.677,2.036,2.036,0,0,0-.265,1.074v5.944a1.093,1.093,0,0,1-.61.875A2.612,2.612,0,0,1,75.949,53.136Z" transform="translate(-4.32 -14.242)"/><path class="cls-2" d="M90.756,53.4a3.559,3.559,0,0,1-2.388-.862,3.318,3.318,0,0,1-1.009-2.667,3.5,3.5,0,0,1,.8-2.441,4.242,4.242,0,0,1,2.189-1.221,13.483,13.483,0,0,1,3.224-.345h.955V45.6a2.362,2.362,0,0,0-.186-.9,1.749,1.749,0,0,0-.61-.756,2.023,2.023,0,0,0-1.194-.3,4.615,4.615,0,0,0-1.619.212,3.488,3.488,0,0,0-.822.437,1.055,1.055,0,0,1-.664.226,1.114,1.114,0,0,1-1.021-.663,2.87,2.87,0,0,1-.359-1.38,1.348,1.348,0,0,1,.73-1.115,5.891,5.891,0,0,1,1.778-.743,8.3,8.3,0,0,1,2.03-.265,7.158,7.158,0,0,1,3.5.743,4.669,4.669,0,0,1,1.937,1.924,5.437,5.437,0,0,1,.61,2.534v6.315a1.07,1.07,0,0,1-.571.9,2.6,2.6,0,0,1-1.446.371,2.215,2.215,0,0,1-1.3-.371,1.082,1.082,0,0,1-.53-.9v-.584a8.712,8.712,0,0,1-1.672,1.473A4.1,4.1,0,0,1,90.756,53.4Zm1.778-3a1.493,1.493,0,0,0,.876-.331,2.963,2.963,0,0,0,.782-.889,2.345,2.345,0,0,0,.332-1.221v-.106h-.106a10.586,10.586,0,0,0-1.42.093,2.354,2.354,0,0,0-1.088.4,1.328,1.328,0,0,0-.119,1.792A1.064,1.064,0,0,0,92.534,50.4Z" transform="translate(-4.32 -14.242)"/><path class="cls-3" d="M61.806,58.894a2.463,2.463,0,0,1-1.446-.4,1.1,1.1,0,0,1-.57-.876V41.752a1.024,1.024,0,0,1,.57-.9,2.646,2.646,0,0,1,1.393-.346,2.439,2.439,0,0,1,1.353.346,1.036,1.036,0,0,1,.531.9v.61A4.362,4.362,0,0,1,65.03,40.97a3.873,3.873,0,0,1,2.189-.624,4.11,4.11,0,0,1,2.428.757,5.262,5.262,0,0,1,1.7,2.016,6.235,6.235,0,0,1,.623,2.8v1.857a6.116,6.116,0,0,1-.636,2.747,5.793,5.793,0,0,1-1.686,2.083,3.747,3.747,0,0,1-4.418.146A3.633,3.633,0,0,1,63.9,51.278V57.62a1.1,1.1,0,0,1-.61.876A2.656,2.656,0,0,1,61.806,58.894Zm4.087-9.076a1.705,1.705,0,0,0,.968-.291,2.313,2.313,0,0,0,.717-.769,1.935,1.935,0,0,0,.278-.983V45.918a1.856,1.856,0,0,0-.265-.955,2.178,2.178,0,0,0-.73-.743,1.9,1.9,0,0,0-1.937-.053,2.051,2.051,0,0,0-.73.677,1.9,1.9,0,0,0-.292,1.074v2.2a1.369,1.369,0,0,0,.253.624,2.6,2.6,0,0,0,.7.743A1.692,1.692,0,0,0,65.893,49.818Z" transform="translate(-4.32 -14.242)"/><path class="cls-3" d="M75.949,53.136a2.512,2.512,0,0,1-1.472-.4,1.1,1.1,0,0,1-.571-.875V41.752a1.025,1.025,0,0,1,.571-.9,2.811,2.811,0,0,1,1.472-.346,2.288,2.288,0,0,1,1.274.346,1.035,1.035,0,0,1,.53.9v.61a3.64,3.64,0,0,1,1.3-1.392,3.951,3.951,0,0,1,2.256-.624,3.682,3.682,0,0,1,2.242.757A5.479,5.479,0,0,1,85.2,43.119a6.235,6.235,0,0,1,.623,2.8v5.944a1.019,1.019,0,0,1-.65.955,3.229,3.229,0,0,1-2.8,0,1.018,1.018,0,0,1-.663-.955V45.918a1.933,1.933,0,0,0-.253-.955,2.14,2.14,0,0,0-.689-.743,1.709,1.709,0,0,0-.969-.292,1.65,1.65,0,0,0-.836.239,1.909,1.909,0,0,0-.677.677,2.036,2.036,0,0,0-.265,1.074v5.944a1.093,1.093,0,0,1-.61.875A2.612,2.612,0,0,1,75.949,53.136Z" transform="translate(-4.32 -14.242)"/><path class="cls-3" d="M90.756,53.4a3.559,3.559,0,0,1-2.388-.862,3.318,3.318,0,0,1-1.009-2.667,3.5,3.5,0,0,1,.8-2.441,4.242,4.242,0,0,1,2.189-1.221,13.483,13.483,0,0,1,3.224-.345h.955V45.6a2.362,2.362,0,0,0-.186-.9,1.749,1.749,0,0,0-.61-.756,2.023,2.023,0,0,0-1.194-.3,4.615,4.615,0,0,0-1.619.212,3.488,3.488,0,0,0-.822.437,1.055,1.055,0,0,1-.664.226,1.114,1.114,0,0,1-1.021-.663,2.87,2.87,0,0,1-.359-1.38,1.348,1.348,0,0,1,.73-1.115,5.891,5.891,0,0,1,1.778-.743,8.3,8.3,0,0,1,2.03-.265,7.158,7.158,0,0,1,3.5.743,4.669,4.669,0,0,1,1.937,1.924,5.437,5.437,0,0,1,.61,2.534v6.315a1.07,1.07,0,0,1-.571.9,2.6,2.6,0,0,1-1.446.371,2.215,2.215,0,0,1-1.3-.371,1.082,1.082,0,0,1-.53-.9v-.584a8.712,8.712,0,0,1-1.672,1.473A4.1,4.1,0,0,1,90.756,53.4Zm1.778-3a1.493,1.493,0,0,0,.876-.331,2.963,2.963,0,0,0,.782-.889,2.345,2.345,0,0,0,.332-1.221v-.106h-.106a10.586,10.586,0,0,0-1.42.093,2.354,2.354,0,0,0-1.088.4,1.328,1.328,0,0,0-.119,1.792A1.064,1.064,0,0,0,92.534,50.4Z" transform="translate(-4.32 -14.242)"/><path class="cls-4" d="M9.836,54.477A1.386,1.386,0,0,0,8.459,53.11q-1.371-.048-2.744,0A1.391,1.391,0,0,0,4.32,54.521a1.414,1.414,0,0,0,1.411,1.4c.438.018.877,0,1.315,0,.457,0,.915.013,1.372,0a1.416,1.416,0,0,0,1.423-1.387c0-.008,0-.017,0-.025s0-.019,0-.028l.386,0c.132,0,.213,0,.319,0l0,.028a1.387,1.387,0,0,0,1.272,1.252c.009,0,.017.011.027.015h.231c.372.008.745,0,1.118,0,.4,0,.8.008,1.192,0h41.7a1.609,1.609,0,0,0,1.676-1.564V25.719c-.141-1.5-1.375-1.782-2.723-1.707-1.243.068-2.494.008-3.741.023-.182,0-.5.08-.519.171a1.854,1.854,0,0,0,.06.794c.032.126.2.211.294.328a1.452,1.452,0,0,1,.038,1.627,1.391,1.391,0,0,1-1.595.484,1.193,1.193,0,0,1-.847-1.294,6.233,6.233,0,0,1,.432-1.046,2.285,2.285,0,0,0,.141-.89c-.007-.078-.4-.174-.622-.175q-6.675-.015-13.35,0c-.23,0-.6.069-.66.212a.712.712,0,0,0,.213.9.818.818,0,0,1,.152.164,1.456,1.456,0,0,1,.025,1.673,1.4,1.4,0,0,1-1.557.458,1.234,1.234,0,0,1-.868-1.34,8.266,8.266,0,0,1,.3-.875c.008-.035.015-.071.022-.106h.221c-.044.155-.095.309-.141.46a1.2,1.2,0,0,0,.093,1.166.941.941,0,0,0,1.374.231,1.053,1.053,0,0,0,.275-1.479,1.733,1.733,0,0,1-.353-.721A9.222,9.222,0,0,1,36.1,18.659a6.907,6.907,0,0,1,11.065-.782,9.056,9.056,0,0,1,2.309,6.956,1.254,1.254,0,0,1-.283.577,1.049,1.049,0,0,0,.035,1.42.932.932,0,0,0,1.3.152,1.133,1.133,0,0,0,.308-1.448,2.715,2.715,0,0,1-.216-.833,23.684,23.684,0,0,0-.364-3.259c-.936-3.589-3.046-6.12-6.776-7.062a8.626,8.626,0,0,0-3.278.049,8.412,8.412,0,0,0-4.531,2.9,10.857,10.857,0,0,0-2.4,7.21,2.111,2.111,0,0,1-.095.587h-.22a2.275,2.275,0,0,0,.057-.909c-.023-.108-.473-.175-.729-.179-1.3-.017-2.606-.016-3.91,0a2.154,2.154,0,0,0-2.364,2.359c0,1.247-.01,2.495,0,3.742,0,.358-.12.52-.485.49-.185-.015-.372,0-.559,0-2.066,0-4.133-.006-6.2.006a1.428,1.428,0,0,0-1.443,1.086,1.378,1.378,0,0,0,.765,1.58,2.4,2.4,0,0,0,.922.149q7.6.012,15.193.006c.2,0,.411-.011.615.009a1.367,1.367,0,0,1,1.24,1.4A1.383,1.383,0,0,1,34.54,36.2q-6.283,0-12.567,0a4.959,4.959,0,0,0-.669.022,1.4,1.4,0,0,0-1.2,1.279c0,.036,0,.071,0,.107H18.781a1.371,1.371,0,0,0-1.347-1.4c-.892-.032-1.787-.031-2.679,0a1.375,1.375,0,0,0-1.361,1.412,1.4,1.4,0,0,0,1.377,1.4c.427.018.856,0,1.284,0,.446,0,.893.014,1.339,0a1.4,1.4,0,0,0,1.389-1.387c0-.008,0-.016,0-.024H20.1a1.385,1.385,0,0,0,.982,1.346,2.927,2.927,0,0,0,.773.068q8.184,0,16.366,0c.2,0,.411-.01.614.008a1.37,1.37,0,0,1,1.254,1.392,1.394,1.394,0,0,1-1.572,1.359q-11.59,0-23.18,0a6.228,6.228,0,0,0-.67.013,1.408,1.408,0,0,0,.08,2.808c.2.011.409,0,.614,0H32.79c.187,0,.374-.009.559.007a1.371,1.371,0,0,1,1.267,1.434,1.4,1.4,0,0,1-1.558,1.317q-7.82,0-15.639,0a5.34,5.34,0,0,0-.67.018,1.405,1.405,0,0,0-1.228,1.256,1.289,1.289,0,0,0,0,.139h-.65c0-.008,0-.016,0-.024a1.41,1.41,0,0,0-2.82.023h-.644v0a1.411,1.411,0,1,0,0,.006h.644a1.409,1.409,0,0,0,2.817,0h.651a1.384,1.384,0,0,0,.957,1.333,2.72,2.72,0,0,0,.772.076q6.144.006,12.288,0c.186,0,.373-.008.558.006a1.369,1.369,0,0,1,1.28,1.423,1.388,1.388,0,0,1-1.545,1.329q-7.776,0-15.553,0c-.795-.022-1.591-.022-2.386.005a1.374,1.374,0,0,0-1.361,1.411.7.7,0,0,0,.01.1" transform="translate(-4.32 -14.242)"/><path class="cls-2" d="M42.527,53.136a3.465,3.465,0,0,1-1.181-.226A3.111,3.111,0,0,1,40.3,52.3a1.143,1.143,0,0,1-.424-.862,1.412,1.412,0,0,1,.053-.292l4.935-16.187a1.665,1.665,0,0,1,1.009-1.034,4.383,4.383,0,0,1,3.409,0,1.661,1.661,0,0,1,.995,1.034l4.963,16.187a1.486,1.486,0,0,1,.053.292,1.145,1.145,0,0,1-.425.862,3.132,3.132,0,0,1-1.034.61,3.428,3.428,0,0,1-1.2.226,1.972,1.972,0,0,1-.862-.173.93.93,0,0,1-.491-.6l-.9-3.317h-5.6l-.9,3.317a.844.844,0,0,1-.477.6A2.065,2.065,0,0,1,42.527,53.136Zm3.1-7.271h3.874l-1.937-7.111Z" transform="translate(-4.32 -14.242)"/><path class="cls-5" d="M66.763,58.586a1.5,1.5,0,0,1-.612-.12.927.927,0,0,1-.43-.388,1.383,1.383,0,0,1-.159-.71V55.687a1.379,1.379,0,0,1,.159-.709.929.929,0,0,1,.43-.389,1.468,1.468,0,0,1,.6-.12,1.5,1.5,0,0,1,.64.126,1.029,1.029,0,0,1,.425.349.907.907,0,0,1,.153.525.216.216,0,0,1-.061.181.27.27,0,0,1-.173.048.324.324,0,0,1-.162-.036.142.142,0,0,1-.073-.126.9.9,0,0,0-.1-.338.543.543,0,0,0-.234-.223.871.871,0,0,0-.4-.081.729.729,0,0,0-.539.192.819.819,0,0,0-.193.6v1.681a.816.816,0,0,0,.193.6.726.726,0,0,0,.539.193.738.738,0,0,0,.542-.193.812.812,0,0,0,.195-.6V56.8h-.665a.137.137,0,0,1-.12-.062.235.235,0,0,1,0-.268.137.137,0,0,1,.12-.062h.972a.147.147,0,0,1,.12.051.179.179,0,0,1,.042.123v.787a1.373,1.373,0,0,1-.159.71.924.924,0,0,1-.433.388A1.512,1.512,0,0,1,66.763,58.586Z" transform="translate(-4.32 -14.242)"/><path class="cls-5" d="M69.361,58.553A.24.24,0,0,1,69.2,58.5a.152.152,0,0,1-.065-.115V56.066a.139.139,0,0,1,.065-.117.274.274,0,0,1,.159-.045.264.264,0,0,1,.156.045.14.14,0,0,1,.062.117v.263a.894.894,0,0,1,.167-.221.937.937,0,0,1,.249-.17.742.742,0,0,1,.316-.067H70.5a.162.162,0,0,1,.126.062.224.224,0,0,1,.053.151.216.216,0,0,1-.053.145.161.161,0,0,1-.126.061h-.189a.636.636,0,0,0-.341.1.769.769,0,0,0-.266.282.871.871,0,0,0-.1.438v1.274a.148.148,0,0,1-.07.115A.276.276,0,0,1,69.361,58.553Z" transform="translate(-4.32 -14.242)"/><path class="cls-5" d="M72.506,58.6a1.03,1.03,0,0,1-.548-.155,1.19,1.19,0,0,1-.4-.4,1,1,0,0,1-.151-.53v-.57a1,1,0,0,1,.148-.528,1.161,1.161,0,0,1,.4-.394,1.083,1.083,0,0,1,1.1,0,1.174,1.174,0,0,1,.405.387.971.971,0,0,1,.154.537v.57a.985.985,0,0,1-.154.528,1.2,1.2,0,0,1-.405.4A1.024,1.024,0,0,1,72.506,58.6Zm0-.419a.569.569,0,0,0,.321-.1.718.718,0,0,0,.232-.248.628.628,0,0,0,.089-.321v-.57a.626.626,0,0,0-.086-.313.71.71,0,0,0-.232-.246.6.6,0,0,0-.648,0,.684.684,0,0,0-.229.246.634.634,0,0,0-.084.313v.57a.69.69,0,0,0,.313.569A.584.584,0,0,0,72.506,58.179Z" transform="translate(-4.32 -14.242)"/><path class="cls-5" d="M75.55,58.6a.234.234,0,0,1-.114-.025.173.173,0,0,1-.076-.093l-.866-2.3-.019-.054a.122.122,0,0,1-.009-.036.144.144,0,0,1,.048-.107.351.351,0,0,1,.114-.069.364.364,0,0,1,.129-.025.19.19,0,0,1,.092.022.125.125,0,0,1,.059.067l.67,1.877.531-1.693a.153.153,0,0,1,.067-.086.21.21,0,0,1,.106-.025.228.228,0,0,1,.109.025.132.132,0,0,1,.064.086l.52,1.71.681-1.894a.134.134,0,0,1,.146-.089.363.363,0,0,1,.128.025.341.341,0,0,1,.114.069.144.144,0,0,1,.048.107.167.167,0,0,1-.009.045l-.013.045L77.2,58.5a.14.14,0,0,1-.073.078.265.265,0,0,1-.111.022.249.249,0,0,1-.12-.025.151.151,0,0,1-.07-.075l-.542-1.643-.531,1.625a.166.166,0,0,1-.078.087A.244.244,0,0,1,75.55,58.6Z" transform="translate(-4.32 -14.242)"/><path class="cls-5" d="M80.673,59.832a.261.261,0,0,1-.151-.042.187.187,0,0,1-.062-.165.317.317,0,0,1,.031-.14.107.107,0,0,1,.1-.061.487.487,0,0,0,.245-.07.877.877,0,0,0,.238-.207,1.385,1.385,0,0,0,.2-.321,1.682,1.682,0,0,0,.123-.407l-.927-2.263a.129.129,0,0,1-.017-.061.158.158,0,0,1,.05-.112.4.4,0,0,1,.12-.081.341.341,0,0,1,.132-.031.2.2,0,0,1,.089.023.1.1,0,0,1,.056.072l.743,1.944.665-1.944a.118.118,0,0,1,.058-.072.183.183,0,0,1,.087-.023.33.33,0,0,1,.126.031.4.4,0,0,1,.12.081.164.164,0,0,1,.05.118.125.125,0,0,1-.011.055l-.855,2.274c-.056.152-.115.311-.178.474a2.731,2.731,0,0,1-.227.456,1.111,1.111,0,0,1-.327.341A.844.844,0,0,1,80.673,59.832Z" transform="translate(-4.32 -14.242)"/><path class="cls-5" d="M84.712,58.6a1.027,1.027,0,0,1-.547-.155,1.181,1.181,0,0,1-.4-.4.991.991,0,0,1-.151-.53v-.57a.993.993,0,0,1,.148-.528,1.158,1.158,0,0,1,.4-.394,1.085,1.085,0,0,1,1.1,0,1.182,1.182,0,0,1,.405.387.978.978,0,0,1,.153.537v.57a.992.992,0,0,1-.153.528,1.2,1.2,0,0,1-.405.4A1.028,1.028,0,0,1,84.712,58.6Zm0-.419a.572.572,0,0,0,.322-.1.737.737,0,0,0,.232-.248.638.638,0,0,0,.089-.321v-.57a.617.617,0,0,0-.087-.313.717.717,0,0,0-.231-.246.6.6,0,0,0-.649,0,.693.693,0,0,0-.229.246.643.643,0,0,0-.083.313v.57a.686.686,0,0,0,.312.569A.584.584,0,0,0,84.712,58.179Z" transform="translate(-4.32 -14.242)"/><path class="cls-5" d="M88.02,58.6a1.065,1.065,0,0,1-.56-.152,1.16,1.16,0,0,1-.4-.4.985.985,0,0,1-.151-.526V56.072a.145.145,0,0,1,.07-.114.265.265,0,0,1,.164-.054.253.253,0,0,1,.162.054.146.146,0,0,1,.067.114v1.452a.621.621,0,0,0,.087.314.707.707,0,0,0,.232.245.595.595,0,0,0,.648,0,.681.681,0,0,0,.229-.245.636.636,0,0,0,.083-.314V56.066a.138.138,0,0,1,.073-.114.3.3,0,0,1,.162-.048.273.273,0,0,1,.168.048.141.141,0,0,1,.061.114v1.458a.994.994,0,0,1-.148.529,1.146,1.146,0,0,1-.4.393A1.042,1.042,0,0,1,88.02,58.6Z" transform="translate(-4.32 -14.242)"/><path class="cls-5" d="M90.533,58.553a.244.244,0,0,1-.159-.053.151.151,0,0,1-.064-.115V56.066a.138.138,0,0,1,.064-.117.278.278,0,0,1,.159-.045.264.264,0,0,1,.156.045.14.14,0,0,1,.062.117v.263a.919.919,0,0,1,.167-.221.937.937,0,0,1,.249-.17.742.742,0,0,1,.316-.067h.19a.16.16,0,0,1,.125.062.225.225,0,0,1,.054.151.217.217,0,0,1-.054.145.159.159,0,0,1-.125.061h-.19a.636.636,0,0,0-.341.1.778.778,0,0,0-.266.282.881.881,0,0,0-.1.438v1.274a.149.149,0,0,1-.069.115A.279.279,0,0,1,90.533,58.553Z" transform="translate(-4.32 -14.242)"/><path class="cls-5" d="M95.667,58.6a.86.86,0,0,1-.467-.132.809.809,0,0,1-.3-.3v.223a.153.153,0,0,1-.061.115.232.232,0,0,1-.156.053.245.245,0,0,1-.16-.053.151.151,0,0,1-.064-.115V54.469a.136.136,0,0,1,.064-.117.272.272,0,0,1,.16-.045.308.308,0,0,1,.17.045.136.136,0,0,1,.07.117V56.3A.884.884,0,0,1,95.2,56a.772.772,0,0,1,.456-.132.894.894,0,0,1,.5.149,1.114,1.114,0,0,1,.363.387,1.067,1.067,0,0,1,.137.537v.57a1.083,1.083,0,0,1-.137.528,1.162,1.162,0,0,1-.36.4A.849.849,0,0,1,95.667,58.6Zm-.112-.419a.577.577,0,0,0,.319-.1.69.69,0,0,0,.231-.251.646.646,0,0,0,.087-.318v-.57a.617.617,0,0,0-.087-.313.717.717,0,0,0-.231-.246.586.586,0,0,0-.325-.095.6.6,0,0,0-.3.081.677.677,0,0,0-.237.224.63.63,0,0,0-.092.349v.72a.388.388,0,0,0,.084.2.822.822,0,0,0,.229.221A.555.555,0,0,0,95.555,58.179Z" transform="translate(-4.32 -14.242)"/><path class="cls-5" d="M98.857,58.6a1.064,1.064,0,0,1-.559-.152,1.163,1.163,0,0,1-.4-.4.985.985,0,0,1-.151-.526V56.072a.145.145,0,0,1,.07-.114.267.267,0,0,1,.164-.054.258.258,0,0,1,.163.054.145.145,0,0,1,.066.114v1.452a.621.621,0,0,0,.087.314.707.707,0,0,0,.232.245.595.595,0,0,0,.648,0,.681.681,0,0,0,.229-.245.637.637,0,0,0,.084-.314V56.066a.136.136,0,0,1,.073-.114.293.293,0,0,1,.162-.048.272.272,0,0,1,.167.048.142.142,0,0,1,.062.114v1.458a1,1,0,0,1-.148.529,1.149,1.149,0,0,1-.4.393A1.04,1.04,0,0,1,98.857,58.6Z" transform="translate(-4.32 -14.242)"/><path class="cls-5" d="M101.906,58.6a1.472,1.472,0,0,1-.474-.071,1.057,1.057,0,0,1-.325-.164.256.256,0,0,1-.116-.19.213.213,0,0,1,.022-.092.261.261,0,0,1,.059-.084.111.111,0,0,1,.08-.036.24.24,0,0,1,.146.063,1.156,1.156,0,0,0,.212.132.886.886,0,0,0,.386.067.607.607,0,0,0,.413-.109.324.324,0,0,0,.117-.243.345.345,0,0,0-.1-.266.712.712,0,0,0-.258-.144c-.1-.036-.214-.07-.329-.1a2.055,2.055,0,0,1-.329-.126.657.657,0,0,1-.255-.211.623.623,0,0,1-.1-.367.822.822,0,0,1,.088-.363.743.743,0,0,1,.291-.3,1.045,1.045,0,0,1,.537-.12,1.676,1.676,0,0,1,.377.042,1.041,1.041,0,0,1,.3.111c.078.047.116.1.116.149a.262.262,0,0,1-.023.09.332.332,0,0,1-.061.1.128.128,0,0,1-.1.044.29.29,0,0,1-.126-.042,1.753,1.753,0,0,0-.195-.081.893.893,0,0,0-.277-.039.584.584,0,0,0-.3.065.429.429,0,0,0-.163.151.351.351,0,0,0-.05.176.264.264,0,0,0,.1.217.776.776,0,0,0,.258.126c.106.032.217.064.332.1a1.43,1.43,0,0,1,.329.134.733.733,0,0,1,.258.237.72.72,0,0,1,.1.4.672.672,0,0,1-.246.545A1.063,1.063,0,0,1,101.906,58.6Z" transform="translate(-4.32 -14.242)"/><path class="cls-5" d="M104.142,55.179a.291.291,0,0,1-.207-.081.253.253,0,0,1-.083-.188.243.243,0,0,1,.083-.184.294.294,0,0,1,.207-.079.286.286,0,0,1,.2.079.248.248,0,0,1,.084.184.258.258,0,0,1-.084.188A.284.284,0,0,1,104.142,55.179Zm0,3.374a.251.251,0,0,1-.165-.053.151.151,0,0,1-.064-.115V56.066a.138.138,0,0,1,.064-.117.287.287,0,0,1,.165-.045.309.309,0,0,1,.165.045.136.136,0,0,1,.069.117v2.319a.149.149,0,0,1-.069.115A.269.269,0,0,1,104.142,58.553Z" transform="translate(-4.32 -14.242)"/><path class="cls-5" d="M105.817,58.553a.253.253,0,0,1-.165-.053.149.149,0,0,1-.063-.115V56.066a.137.137,0,0,1,.063-.117.289.289,0,0,1,.165-.045.26.26,0,0,1,.152.045.141.141,0,0,1,.06.117v.23a.889.889,0,0,1,.28-.293.8.8,0,0,1,.469-.132.871.871,0,0,1,.492.149,1.089,1.089,0,0,1,.357.387,1.076,1.076,0,0,1,.135.537v1.441a.138.138,0,0,1-.074.126.322.322,0,0,1-.318,0,.138.138,0,0,1-.072-.126V56.944a.617.617,0,0,0-.087-.313.71.71,0,0,0-.232-.246.57.57,0,0,0-.318-.095.577.577,0,0,0-.291.081.651.651,0,0,0-.228.224.638.638,0,0,0-.09.349v1.441a.151.151,0,0,1-.07.115A.265.265,0,0,1,105.817,58.553Z" transform="translate(-4.32 -14.242)"/><path class="cls-5" d="M110.1,58.6a1.451,1.451,0,0,1-.643-.137,1.113,1.113,0,0,1-.441-.38,1,1,0,0,1-.161-.567v-.587A.952.952,0,0,1,109,56.4a1.15,1.15,0,0,1,.405-.385,1.1,1.1,0,0,1,1.478.351.963.963,0,0,1,.147.531.557.557,0,0,1-.072.322.308.308,0,0,1-.185.12,1.256,1.256,0,0,1-.234.022h-1.23v.167a.6.6,0,0,0,.224.494.88.88,0,0,0,.575.182.8.8,0,0,0,.33-.056,1.46,1.46,0,0,0,.2-.108.25.25,0,0,1,.139-.054.162.162,0,0,1,.1.036.256.256,0,0,1,.063.087.213.213,0,0,1,.023.09.247.247,0,0,1-.106.164.929.929,0,0,1-.305.162A1.392,1.392,0,0,1,110.1,58.6Zm-.783-1.548h1.035a.364.364,0,0,0,.2-.036.176.176,0,0,0,.047-.143.612.612,0,0,0-.081-.309.638.638,0,0,0-.226-.233.625.625,0,0,0-.33-.089.64.64,0,0,0-.318.081.647.647,0,0,0-.235.221.562.562,0,0,0-.09.307Z" transform="translate(-4.32 -14.242)"/><path class="cls-5" d="M112.866,58.6a1.459,1.459,0,0,1-.474-.071,1.057,1.057,0,0,1-.325-.164.258.258,0,0,1-.117-.19.215.215,0,0,1,.023-.092.274.274,0,0,1,.058-.084.115.115,0,0,1,.081-.036.24.24,0,0,1,.146.063,1.156,1.156,0,0,0,.212.132.878.878,0,0,0,.385.067.608.608,0,0,0,.414-.109.324.324,0,0,0,.117-.243.345.345,0,0,0-.1-.266.712.712,0,0,0-.258-.144c-.1-.036-.214-.07-.329-.1a2.142,2.142,0,0,1-.33-.126.669.669,0,0,1-.254-.211.623.623,0,0,1-.1-.367.8.8,0,0,1,.089-.363.734.734,0,0,1,.29-.3,1.042,1.042,0,0,1,.537-.12,1.676,1.676,0,0,1,.377.042,1.041,1.041,0,0,1,.295.111c.078.047.116.1.116.149a.262.262,0,0,1-.023.09.332.332,0,0,1-.061.1.128.128,0,0,1-.1.044.29.29,0,0,1-.126-.042,1.753,1.753,0,0,0-.2-.081.893.893,0,0,0-.277-.039.584.584,0,0,0-.295.065.422.422,0,0,0-.163.151.342.342,0,0,0-.05.176.264.264,0,0,0,.1.217.776.776,0,0,0,.258.126c.106.032.217.064.332.1a1.43,1.43,0,0,1,.329.134.667.667,0,0,1,.359.64.672.672,0,0,1-.246.545A1.063,1.063,0,0,1,112.866,58.6Z" transform="translate(-4.32 -14.242)"/><path class="cls-5" d="M115.632,58.6a1.469,1.469,0,0,1-.475-.071,1.062,1.062,0,0,1-.324-.164.258.258,0,0,1-.117-.19.229.229,0,0,1,.022-.092A.277.277,0,0,1,114.8,58a.114.114,0,0,1,.081-.036.235.235,0,0,1,.145.063,1.156,1.156,0,0,0,.212.132.883.883,0,0,0,.386.067.605.605,0,0,0,.413-.109.324.324,0,0,0,.117-.243.348.348,0,0,0-.1-.266.729.729,0,0,0-.258-.144c-.1-.036-.214-.07-.329-.1a2.1,2.1,0,0,1-.33-.126.654.654,0,0,1-.254-.211.616.616,0,0,1-.1-.367.786.786,0,0,1,.09-.363.728.728,0,0,1,.29-.3,1.041,1.041,0,0,1,.536-.12,1.663,1.663,0,0,1,.377.042,1.049,1.049,0,0,1,.3.111c.077.047.115.1.115.149a.281.281,0,0,1-.022.09.335.335,0,0,1-.062.1.125.125,0,0,1-.1.044.282.282,0,0,1-.126-.042,1.7,1.7,0,0,0-.2-.081.891.891,0,0,0-.276-.039.588.588,0,0,0-.3.065.418.418,0,0,0-.162.151.343.343,0,0,0-.051.176.262.262,0,0,0,.1.217.757.757,0,0,0,.258.126c.1.032.217.064.332.1a1.448,1.448,0,0,1,.329.134.75.75,0,0,1,.258.237.729.729,0,0,1,.1.4.672.672,0,0,1-.246.545A1.06,1.06,0,0,1,115.632,58.6Z" transform="translate(-4.32 -14.242)"/><path class="cls-5" d="M120.135,58.6a.24.24,0,0,1-.114-.025.173.173,0,0,1-.076-.093l-.866-2.3-.019-.054a.149.149,0,0,1-.008-.036.143.143,0,0,1,.047-.107.383.383,0,0,1,.243-.094.192.192,0,0,1,.092.022.125.125,0,0,1,.059.067l.67,1.877.53-1.693a.159.159,0,0,1,.068-.086.21.21,0,0,1,.106-.025.228.228,0,0,1,.109.025.128.128,0,0,1,.064.086l.52,1.71.681-1.894a.135.135,0,0,1,.146-.089.383.383,0,0,1,.243.094.147.147,0,0,1,.047.107.2.2,0,0,1-.008.045l-.015.045-.871,2.318a.138.138,0,0,1-.072.078.273.273,0,0,1-.112.022.254.254,0,0,1-.12-.025.151.151,0,0,1-.07-.075l-.542-1.643-.531,1.625a.166.166,0,0,1-.078.087A.244.244,0,0,1,120.135,58.6Z" transform="translate(-4.32 -14.242)"/><path class="cls-5" d="M123.861,55.179a.293.293,0,0,1-.207-.081.257.257,0,0,1-.083-.188.247.247,0,0,1,.083-.184.3.3,0,0,1,.207-.079.284.284,0,0,1,.2.079.244.244,0,0,1,.084.184.254.254,0,0,1-.084.188A.282.282,0,0,1,123.861,55.179Zm0,3.374a.253.253,0,0,1-.165-.053.149.149,0,0,1-.063-.115V56.066a.137.137,0,0,1,.063-.117.289.289,0,0,1,.165-.045.306.306,0,0,1,.165.045.137.137,0,0,1,.07.117v2.319a.151.151,0,0,1-.07.115A.267.267,0,0,1,123.861,58.553Z" transform="translate(-4.32 -14.242)"/><path class="cls-5" d="M126.225,58.553a1.049,1.049,0,0,1-.691-.2.8.8,0,0,1-.237-.643V54.832a.134.134,0,0,1,.072-.117.3.3,0,0,1,.157-.045.308.308,0,0,1,.162.045.135.135,0,0,1,.073.117V55.9h.7a.115.115,0,0,1,.1.057.224.224,0,0,1,.037.128.211.211,0,0,1-.037.126.116.116,0,0,1-.1.053h-.7v1.441a.453.453,0,0,0,.1.338.523.523,0,0,0,.361.1h.172a.182.182,0,0,1,.151.061.214.214,0,0,1,.051.14.223.223,0,0,1-.051.142.178.178,0,0,1-.151.065Z" transform="translate(-4.32 -14.242)"/><path class="cls-5" d="M127.828,58.553a.253.253,0,0,1-.165-.053.151.151,0,0,1-.064-.115V54.469a.136.136,0,0,1,.064-.117.282.282,0,0,1,.165-.045.3.3,0,0,1,.165.045.135.135,0,0,1,.069.117V56.3a.908.908,0,0,1,.271-.293.755.755,0,0,1,.456-.132.865.865,0,0,1,.491.149,1.084,1.084,0,0,1,.491.924v1.441a.136.136,0,0,1-.072.126.316.316,0,0,1-.162.042.307.307,0,0,1-.156-.042.136.136,0,0,1-.072-.126V56.944a.611.611,0,0,0-.09-.313.749.749,0,0,0-.232-.246.556.556,0,0,0-.315-.095.571.571,0,0,0-.291.081.663.663,0,0,0-.229.224.646.646,0,0,0-.09.349v1.441a.149.149,0,0,1-.069.115A.267.267,0,0,1,127.828,58.553Z" transform="translate(-4.32 -14.242)"/><path class="cls-5" d="M133.721,58.6a1.064,1.064,0,0,1-.559-.152,1.163,1.163,0,0,1-.4-.4.985.985,0,0,1-.151-.526V56.072a.147.147,0,0,1,.07-.114.268.268,0,0,1,.165-.054.257.257,0,0,1,.162.054.146.146,0,0,1,.067.114v1.452a.629.629,0,0,0,.086.314.71.71,0,0,0,.233.245.593.593,0,0,0,.647,0,.684.684,0,0,0,.23-.245.648.648,0,0,0,.084-.314V56.066a.135.135,0,0,1,.072-.114.3.3,0,0,1,.162-.048.275.275,0,0,1,.168.048.142.142,0,0,1,.06.114v1.458a.993.993,0,0,1-.147.529,1.146,1.146,0,0,1-.4.393A1.046,1.046,0,0,1,133.721,58.6Z" transform="translate(-4.32 -14.242)"/><path class="cls-5" d="M136.771,58.6a1.469,1.469,0,0,1-.475-.071,1.05,1.05,0,0,1-.324-.164.26.26,0,0,1-.118-.19.215.215,0,0,1,.023-.092.277.277,0,0,1,.059-.084.112.112,0,0,1,.081-.036.237.237,0,0,1,.145.063,1.156,1.156,0,0,0,.212.132.883.883,0,0,0,.386.067.605.605,0,0,0,.413-.109.324.324,0,0,0,.117-.243.345.345,0,0,0-.1-.266.716.716,0,0,0-.257-.144c-.1-.036-.214-.07-.329-.1a2.115,2.115,0,0,1-.331-.126.658.658,0,0,1-.253-.211.616.616,0,0,1-.1-.367.786.786,0,0,1,.09-.363.722.722,0,0,1,.29-.3,1.038,1.038,0,0,1,.536-.12,1.663,1.663,0,0,1,.377.042,1.049,1.049,0,0,1,.3.111c.077.047.115.1.115.149a.281.281,0,0,1-.022.09.356.356,0,0,1-.062.1.127.127,0,0,1-.1.044.29.29,0,0,1-.126-.042,1.677,1.677,0,0,0-.195-.081.891.891,0,0,0-.276-.039.588.588,0,0,0-.3.065.418.418,0,0,0-.162.151.343.343,0,0,0-.051.176.262.262,0,0,0,.1.217.761.761,0,0,0,.257.126c.106.032.217.064.332.1a1.437,1.437,0,0,1,.33.134.739.739,0,0,1,.257.237.72.72,0,0,1,.1.4.672.672,0,0,1-.246.545A1.062,1.062,0,0,1,136.771,58.6Z" transform="translate(-4.32 -14.242)"/></svg>