<svg width="179" height="38" viewBox="0 0 179 38" fill="none" xmlns="http://www.w3.org/2000/svg">
<g clip-path="url(#clip0_148_24)">
<mask id="mask0_148_24" style="mask-type:luminance" maskUnits="userSpaceOnUse" x="0" y="0" width="179" height="38">
<path d="M178.126 0H0.125977V38H178.126V0Z" fill="white"/>
</mask>
<g mask="url(#mask0_148_24)">
<path d="M52.131 15.201C51.8841 15.0935 51.6052 15.086 51.353 15.18C51.1146 15.2603 50.8885 15.373 50.681 15.515C50.3918 15.7043 50.1176 15.9156 49.861 16.147C49.5367 16.4451 49.2293 16.7609 48.94 17.093C48.606 17.463 48.24 17.967 47.897 18.323C47.361 18.872 46.837 19.482 46.267 19.995C45.5749 20.6759 44.7803 21.2438 43.912 21.678C43.5996 21.8091 43.2539 21.8385 42.924 21.762C42.712 21.711 42.565 21.571 42.461 21.236C42.404 20.9968 42.4261 20.7456 42.524 20.52L42.692 20.269C43.7172 19.9024 44.6773 19.3745 45.536 18.705C46.3516 18.1055 47.0046 17.3118 47.436 16.396C47.668 15.845 47.619 15.455 47.415 15.282C46.903 14.844 45.987 15.223 45.502 15.493C45.017 15.763 44.468 16.034 43.968 16.376C43.3648 16.7925 42.8014 17.2639 42.285 17.784C41.89 18.179 41.5639 18.573 41.146 18.968C41.0406 18.9666 40.9374 18.9388 40.8455 18.8873C40.7536 18.8358 40.6761 18.7621 40.62 18.673C40.4914 18.3893 40.4563 18.072 40.52 17.767C40.5505 17.399 40.6175 17.0349 40.72 16.68C40.807 16.385 41.04 16.125 41.162 15.795C41.1928 15.693 41.1854 15.5833 41.141 15.4864C41.0966 15.3896 41.0184 15.3122 40.921 15.269C40.7941 15.2194 40.6581 15.1974 40.522 15.2045C40.386 15.2116 40.253 15.2476 40.132 15.31C39.7298 15.5016 39.3713 15.7739 39.079 16.11C38.8632 16.3568 38.6679 16.6206 38.495 16.899C38.374 16.965 38.307 16.928 38.295 16.879C38.2441 16.5626 38.1428 16.2564 37.995 15.972C37.8667 15.7926 37.7018 15.6425 37.5111 15.5316C37.3204 15.4208 37.1084 15.3517 36.889 15.329C35.743 15.278 34.715 15.362 33.55 15.367C33.313 14.867 33.096 14.346 32.826 13.867C32.4485 13.1842 31.9836 12.5536 31.443 11.991C30.7869 11.3154 29.9933 10.7885 29.116 10.446C28.5173 10.1785 27.8715 10.0323 27.216 10.016C26.6087 10.0142 26.0214 10.232 25.562 10.629C25.3182 10.8582 25.1475 11.1541 25.0712 11.4798C24.9949 11.8055 25.0164 12.1465 25.1329 12.46C25.2642 12.8867 25.4738 13.2852 25.751 13.635C26.1636 14.1339 26.6604 14.5566 27.219 14.884C27.7126 15.1356 28.2186 15.3622 28.735 15.563C28.948 15.663 29.188 15.781 29.406 15.893C28.986 16.298 28.406 16.903 27.938 17.405C27.896 17.451 26.984 18.318 26.738 18.271C26.517 18.271 26.167 18.338 26.226 18.171C26.3633 17.5747 26.4618 16.9701 26.521 16.361C26.528 16.1127 26.4363 15.8718 26.266 15.691C24.998 14.213 22.541 16.059 21.407 16.97C20.4771 17.7237 19.6477 18.5934 18.939 19.558C18.5263 19.7764 18.1273 20.0195 17.744 20.286C17.5352 20.4514 17.2728 20.534 17.007 20.518C17.207 20.218 17.394 19.905 17.607 19.613C17.861 19.268 18.148 18.949 18.407 18.613C18.737 18.183 19.053 17.741 19.378 17.307C19.687 16.893 19.996 16.477 20.316 16.07C20.4055 15.9858 20.464 15.8739 20.4822 15.7524C20.5003 15.6308 20.477 15.5067 20.416 15.4C20.338 15.268 20.153 15.18 19.816 15.2C19.4659 15.2358 19.1312 15.3623 18.845 15.567C18.552 15.7638 18.273 15.9807 18.01 16.216C17.701 16.54 17.342 16.844 17.038 17.175C16.734 17.506 16.468 17.854 16.167 18.175C15.78 18.597 15.404 18.934 15.13 19.228C14.4407 19.9298 13.6978 20.5767 12.908 21.163C12.5383 21.4702 12.1378 21.7382 11.713 21.963C11.3183 22.1576 10.8804 22.2481 10.441 22.226C10.3297 22.2317 10.2187 22.2097 10.1179 22.1621C10.0171 22.1145 9.92968 22.0427 9.86336 21.9531C9.79704 21.8636 9.7539 21.759 9.73778 21.6487C9.72166 21.5384 9.73305 21.4258 9.77095 21.321C9.86328 20.9175 9.99736 20.5248 10.171 20.149C10.3723 19.6761 10.6062 19.2176 10.871 18.777C11.2013 18.2886 11.5588 17.8192 11.942 17.371C12.28 16.921 12.6492 16.4953 13.047 16.097C13.532 15.634 14.047 15.204 14.555 14.758C15.1927 14.2195 15.8759 13.7373 16.597 13.317C17.3488 12.8855 18.1612 12.5694 19.007 12.379C19.6303 12.2199 20.2716 12.1419 20.915 12.147L22.494 12.18L23.331 10.873L24.001 9.80204C23.8841 9.65803 23.7167 9.56398 23.533 9.53904C23.0533 9.47128 22.5652 9.49399 22.094 9.60602C20.7996 9.89738 19.5331 10.3013 18.309 10.813C17.345 11.208 16.388 11.635 15.463 12.119C14.6326 12.5518 13.8279 13.0323 13.053 13.558C12.2163 14.1272 11.4117 14.7421 10.643 15.4C9.93396 16.008 9.26197 16.637 8.61397 17.276C8.008 17.9046 7.46227 18.5886 6.98396 19.319C6.59396 19.8719 6.29266 20.4822 6.09096 21.128C5.93004 21.6609 5.907 22.2258 6.02397 22.77C6.07884 23.1087 6.23688 23.4222 6.47652 23.6678C6.71616 23.9133 7.02571 24.0789 7.36296 24.142C8.01595 24.2706 8.68879 24.259 9.33696 24.108C9.87482 24.0087 10.4031 23.8632 10.916 23.673C11.2936 23.5391 11.6533 23.359 11.987 23.137C12.048 23.094 12.158 23.037 12.154 23.137C12.145 23.43 11.909 23.663 11.709 23.937C11.5922 24.1344 11.4492 24.315 11.284 24.474C10.305 25.102 9.33796 25.738 8.37096 26.383C6.28095 27.5771 4.36559 29.0537 2.67897 30.771C2.06447 31.4204 1.62655 32.2164 1.40697 33.083C1.11397 34.639 2.63098 34.683 3.73198 34.399C5.0165 34.0264 6.21662 33.4083 7.26598 32.579C8.83108 31.4412 10.2284 30.089 11.417 28.562L12.217 27.524L13.017 26.419L13.687 25.447L14.558 23.973C14.9218 23.6482 15.314 23.3567 15.73 23.102L17.035 22.231C17.298 22.064 17.618 21.884 17.885 21.717C17.848 21.992 17.785 22.293 17.772 22.6C17.7412 22.9201 17.7917 23.2427 17.919 23.538C18.0083 23.7221 18.1432 23.8803 18.3109 23.9976C18.4785 24.1149 18.6734 24.1873 18.877 24.208C19.3602 24.2839 19.8546 24.2386 20.316 24.076C20.775 23.905 21.208 23.676 21.655 23.476L22.693 22.776L23.564 22.039L24.336 21.068L24.971 20.268L25.406 19.833L25.874 19.701L26.374 19.739C26.231 20.032 26.09 20.317 25.974 20.609C25.7776 21.0356 25.6701 21.4976 25.658 21.967C25.639 22.3614 25.6995 22.7556 25.836 23.126C26.0194 23.5497 26.3573 23.8876 26.781 24.071C27.2456 24.2446 27.7493 24.2858 28.236 24.19C28.7278 24.0684 29.1994 23.8761 29.636 23.619C30.1747 23.3029 30.6707 22.9191 31.112 22.477C31.5303 22.0477 31.906 21.5788 32.234 21.077C32.572 20.4926 32.8742 19.8881 33.139 19.267C33.3474 18.8268 33.5058 18.3646 33.611 17.889C33.7135 17.4653 33.7748 17.0326 33.794 16.597C34.1174 16.5738 34.442 16.5692 34.766 16.583C35.0407 16.6096 35.3039 16.7067 35.53 16.865C35.73 17.015 35.811 17.276 35.751 17.711C35.7075 18.0223 35.6057 18.3225 35.451 18.596C35.056 19.309 34.662 19.996 34.267 20.71C33.567 21.885 32.799 23.139 32.095 24.31H34.736C35.7765 22.9136 36.7313 21.4552 37.595 19.943C37.709 19.848 37.795 19.835 37.858 19.902C38.033 20.359 38.264 20.744 38.663 20.848C38.9098 20.9115 39.1672 20.9227 39.4187 20.8808C39.6701 20.839 39.91 20.745 40.123 20.605C39.8152 21.1599 39.6268 21.773 39.57 22.405C39.5183 22.7114 39.5493 23.0259 39.6597 23.3163C39.77 23.6067 39.9558 23.8624 40.198 24.057C40.5718 24.2597 40.9956 24.3516 41.4198 24.3221C41.8439 24.2925 42.2509 24.1426 42.593 23.89C43.1461 23.5986 43.6805 23.273 44.193 22.915C44.811 22.489 45.402 22.028 45.999 21.555C46.1479 21.4332 46.2883 21.3013 46.419 21.16C46.669 20.847 46.626 21.16 46.551 21.371C46.364 21.701 46.191 22.029 46.014 22.359C45.705 22.815 45.407 23.28 45.093 23.726C44.664 24.326 44.209 24.91 43.769 25.514C43.452 25.946 43.151 26.39 42.823 26.814C42.37 27.414 41.902 27.998 41.432 28.581C41.081 29.03 40.737 29.486 40.38 29.927C39.985 30.405 39.58 30.865 39.18 31.336C38.8016 31.7331 38.4498 32.1546 38.127 32.598C37.9466 32.8598 37.8376 33.1642 37.811 33.481C37.7995 33.6178 37.8161 33.7554 37.8596 33.8856C37.9031 34.0157 37.9726 34.1356 38.064 34.238C38.3096 34.465 38.6347 34.586 38.969 34.575C39.3709 34.5218 39.7535 34.3704 40.083 34.134C40.4219 33.8984 40.7311 33.6227 41.004 33.313C41.367 32.9359 41.7108 32.5408 42.034 32.129C42.421 31.645 42.791 31.144 43.148 30.637C43.597 30.002 44.035 29.358 44.448 28.706C44.787 28.169 45.106 27.617 45.415 27.065C45.801 26.3897 46.1793 25.71 46.55 25.026C46.866 24.44 47.168 23.842 47.471 23.259C47.774 22.676 48.084 22.043 48.417 21.45C48.764 20.832 49.125 20.217 49.51 19.621C49.773 19.216 50.061 18.832 50.351 18.444C50.706 17.973 51.08 17.523 51.444 17.053C51.7392 16.7555 52.007 16.4318 52.244 16.086C52.484 15.677 52.372 15.329 52.131 15.201ZM44.513 17.514C44.667 17.369 45.534 16.462 45.762 16.736C45.967 16.983 45.63 17.386 45.287 17.778C45.1034 18.0563 44.8604 18.2903 44.5754 18.4633C44.2904 18.6362 43.9705 18.7437 43.639 18.778C43.8082 18.2845 44.1107 17.8464 44.513 17.514ZM7.40297 29.987C6.87673 30.7387 6.27819 31.437 5.61595 32.072C5.22895 32.381 4.84397 32.554 4.50597 32.405C3.97997 32.173 4.71996 31.156 4.88896 30.937C5.55903 30.1378 6.3221 29.4214 7.16197 28.803C7.58432 28.4387 8.0682 28.1526 8.59096 27.958C8.31501 28.6981 7.91271 29.3846 7.40196 29.987H7.40297ZM24.892 17.915C24.592 18.115 24.264 18.241 23.992 18.428C23.65 18.65 23.426 18.906 23.466 19.235C23.4876 19.4317 23.5562 19.6204 23.666 19.785C23.504 20.2858 23.2038 20.7305 22.8 21.068C22.4998 21.3998 22.1564 21.6897 21.779 21.93C21.6886 21.9837 21.5823 22.0041 21.4785 21.9874C21.3747 21.9708 21.28 21.9183 21.211 21.839C21.129 21.7162 21.0868 21.5713 21.09 21.4237C21.0933 21.2761 21.1418 21.1331 21.229 21.014C21.4481 20.6021 21.6929 20.2043 21.962 19.823C22.6467 18.8267 23.5324 17.9846 24.562 17.351C24.746 17.251 24.904 17.283 24.962 17.406C25.0155 17.4856 25.0376 17.5823 25.024 17.6773C25.0103 17.7723 24.9618 17.8588 24.888 17.92L24.892 17.915ZM31.962 18.257C31.7885 18.7669 31.571 19.2608 31.312 19.733C30.9929 20.2743 30.5798 20.7541 30.092 21.15C29.9602 21.2608 29.8001 21.3325 29.6297 21.3568C29.4593 21.3812 29.2855 21.3574 29.128 21.288C28.928 21.18 28.882 20.888 28.952 20.559C29.0547 20.1686 29.243 19.8059 29.503 19.497C29.8266 19.0712 30.1816 18.67 30.565 18.297C30.9202 18.0116 31.2307 17.6745 31.486 17.297C31.381 17.081 31.254 16.785 31.152 16.569C31.336 16.562 31.539 16.635 31.722 16.628C31.944 16.706 32.128 16.828 32.155 17.023C32.1984 17.4474 32.1295 17.8757 31.955 18.265L31.962 18.257ZM28.698 14.324C28.2865 14.0597 27.9159 13.7366 27.598 13.365C27.3852 13.1789 27.2535 12.9171 27.2307 12.6353C27.2079 12.3535 27.2959 12.074 27.476 11.856C27.976 11.268 29.186 11.649 29.713 11.974C30.2572 12.3118 30.7323 12.7499 31.113 13.265C31.5672 13.9176 31.9409 14.6227 32.226 15.365C30.9774 15.3342 29.7589 14.9763 28.692 14.327L28.698 14.324ZM53.921 13.179C53.7768 13.6554 53.4991 14.0805 53.121 14.404C52.96 14.4896 52.7819 14.5382 52.5998 14.5464C52.4176 14.5545 52.236 14.5219 52.068 14.451C51.9327 14.4099 51.8155 14.3241 51.7353 14.2077C51.6552 14.0912 51.617 13.951 51.627 13.81C51.6984 13.3848 51.9264 13.0017 52.266 12.736C52.611 12.394 53.225 11.927 53.713 12.341C53.8217 12.4485 53.8987 12.5838 53.9354 12.7322C53.9721 12.8806 53.9671 13.0363 53.921 13.182V13.179Z" fill="#100E0C"/>
<path d="M86.5379 15.1271C87.9927 16.8025 88.7449 18.9747 88.6379 21.191V34.07H83.0199V21.945C83.0434 21.4122 82.961 20.88 82.7773 20.3793C82.5936 19.8786 82.3124 19.4193 81.9499 19.0281C81.5883 18.6578 81.1531 18.3676 80.6723 18.176C80.1916 17.9845 79.676 17.8959 79.1589 17.9161C78.6361 17.8985 78.1153 17.9882 77.6284 18.1794C77.1416 18.3706 76.699 18.6594 76.3279 19.0281C75.9539 19.4131 75.6625 19.8704 75.4713 20.372C75.2801 20.8735 75.1931 21.4088 75.2159 21.945V34.07H69.5459V13.302H74.7459V15.19C75.5465 14.4046 76.4991 13.7911 77.5453 13.387C78.5915 12.9829 79.7092 12.7968 80.8299 12.8401C81.8896 12.788 82.948 12.9653 83.9328 13.3601C84.9176 13.7548 85.8055 14.3575 86.5359 15.1271" fill="#100E0C"/>
<path d="M127.021 25.597H112.421C112.727 26.8272 113.464 27.9067 114.499 28.639C115.624 29.3804 116.952 29.752 118.299 29.7021C120.41 29.6765 122.451 28.9363 124.088 27.602L126.438 31.4651C124.138 33.4746 121.185 34.5783 118.131 34.57C116.634 34.6178 115.143 34.3659 113.745 33.8291C112.347 33.2923 111.071 32.4813 109.991 31.444C108.941 30.4509 108.111 29.2489 107.555 27.9154C106.998 26.5819 106.728 25.1466 106.76 23.7021C106.739 22.2689 107.005 20.846 107.544 19.5177C108.082 18.1894 108.882 16.9827 109.895 15.9691C110.909 14.9554 112.115 14.1555 113.444 13.6167C114.772 13.0778 116.195 12.811 117.628 12.832C118.915 12.7802 120.199 12.9934 121.4 13.4584C122.601 13.9234 123.694 14.6304 124.611 15.5353C125.527 16.4403 126.248 17.524 126.728 18.7192C127.209 19.9143 127.438 21.1954 127.403 22.483C127.398 23.5275 127.271 24.5679 127.025 25.583M114.263 18.5341C113.341 19.3352 112.696 20.4073 112.421 21.597H121.904C121.916 21.0196 121.802 20.4465 121.57 19.9175C121.338 19.3886 120.994 18.9165 120.561 18.5341C119.69 17.7772 118.567 17.3731 117.414 17.401C116.262 17.3835 115.143 17.7863 114.267 18.5341" fill="#100E0C"/>
<path d="M143.156 13.304V18.296H141.644C140.164 18.2178 138.709 18.7051 137.575 19.659C137.046 20.1852 136.638 20.8193 136.377 21.5179C136.117 22.2166 136.01 22.9634 136.065 23.707V34.065H130.401V13.304H135.601V15.824C136.259 14.9377 137.121 14.2235 138.115 13.7424C139.108 13.2613 140.204 13.0276 141.307 13.061C141.93 13.0507 142.551 13.1353 143.149 13.312" fill="#100E0C"/>
<path d="M151.717 13.302H146.053V34.071H151.717V13.302Z" fill="#100E0C"/>
<path d="M173.511 16.006C174.546 17.0058 175.369 18.2037 175.931 19.5283C176.493 20.8529 176.783 22.2771 176.783 23.716C176.783 25.1549 176.493 26.5792 175.931 27.9038C175.369 29.2284 174.546 30.4262 173.511 31.426C172.465 32.4512 171.224 33.2576 169.862 33.7979C168.501 34.3383 167.045 34.6018 165.58 34.573C163.41 34.6186 161.275 34.0118 159.453 32.8311C157.631 31.6503 156.206 29.95 155.361 27.9501C154.516 25.9502 154.29 23.7428 154.714 21.6134C155.137 19.484 156.19 17.5306 157.735 16.006C159.871 13.9988 162.692 12.8815 165.623 12.8815C168.554 12.8815 171.375 13.9988 173.511 16.006ZM161.762 19.657C160.741 20.771 160.199 22.2418 160.253 23.752C160.225 24.493 160.343 25.2323 160.602 25.9271C160.861 26.622 161.256 27.2585 161.762 27.8C162.79 28.8117 164.175 29.377 165.617 29.373C167.058 29.3691 168.44 28.7963 169.462 27.779C169.972 27.2427 170.369 26.6105 170.632 25.9192C170.895 25.2279 171.018 24.4912 170.993 23.752C171.037 22.2472 170.487 20.7854 169.462 19.683C168.963 19.1671 168.366 18.7565 167.705 18.4754C167.045 18.1943 166.334 18.0485 165.617 18.0465C164.899 18.0446 164.188 18.1865 163.526 18.464C162.864 18.7415 162.264 19.1488 161.762 19.662" fill="#100E0C"/>
<path d="M65.27 13.302H59.606V34.071H65.27V13.302Z" fill="#100E0C"/>
<path d="M65.839 6.64902C65.839 7.32147 65.6396 7.97884 65.266 8.53796C64.8924 9.09709 64.3614 9.53288 63.7402 9.79022C63.1189 10.0476 62.4353 10.1149 61.7757 9.9837C61.1162 9.85251 60.5104 9.52869 60.0349 9.05319C59.5594 8.57769 59.2356 7.97185 59.1044 7.31232C58.9732 6.65278 59.0405 5.96917 59.2979 5.3479C59.5552 4.72663 59.991 4.19562 60.5501 3.82202C61.1092 3.44842 61.7666 3.24902 62.439 3.24902C63.3408 3.24902 64.2056 3.60725 64.8432 4.24487C65.4808 4.8825 65.839 5.74728 65.839 6.64902Z" fill="#100E0C"/>
<path d="M152.021 6.64902C152.021 7.32147 151.822 7.97884 151.448 8.53796C151.075 9.09709 150.544 9.53288 149.922 9.79022C149.301 10.0476 148.617 10.1149 147.958 9.9837C147.298 9.85251 146.693 9.52869 146.217 9.05319C145.742 8.57769 145.418 7.97185 145.287 7.31232C145.155 6.65278 145.223 5.96917 145.48 5.3479C145.737 4.72663 146.173 4.19562 146.732 3.82202C147.291 3.44842 147.949 3.24902 148.621 3.24902C149.523 3.24902 150.388 3.60725 151.025 4.24487C151.663 4.8825 152.021 5.74728 152.021 6.64902Z" fill="#100E0C"/>
<path d="M102.972 29.498C100.372 29.498 99.4392 28.631 99.4392 26.254V7.65399H93.7882V13.139H90.9722V19.121H93.7882V26.489C93.7882 31.948 96.3562 34.58 101.682 34.58C102.704 34.605 103.723 34.4642 104.7 34.163V29.411C103.644 29.467 103.323 29.498 102.972 29.498Z" fill="#100E0C"/>
<path d="M105.089 13.302H99.438V18.953H105.089V13.302Z" fill="#F9A01B"/>
</g>
</g>
<defs>
<clipPath id="clip0_148_24">
<rect width="178" height="38" fill="white" transform="translate(0.125977)"/>
</clipPath>
</defs>
</svg>
